<!--?xml version="1.0" encoding="utf-8"?-->
<!-- Generator: Adobe Illustrator 24.1.1, SVG Export Plug-In . SVG Version: 6.00 Build 0)  -->
<svg version="1.1" id="_x31_0" xmlns="http://www.w3.org/2000/svg" xmlns:xlink="http://www.w3.org/1999/xlink" x="0px" y="0px" viewBox="0 0 512 512" style="width: 256px; height: 256px; opacity: 1;" xml:space="preserve">
<style type="text/css">
	.st0{fill:#374149;}
</style>
<g>
	<path class="st0" d="M167.567,359.699c3.052-2.234,6.325-4.465,10.416-6.252c4.018-1.784,8.93-2.899,15.029-2.899
		c6.177,0,11.012,1.115,15.106,2.899c4.09,1.787,7.291,4.018,10.339,6.176c6.474,4.465,11.684,8.41,24.406,8.482
		c11.68-0.073,17.111-3.422,22.917-7.44l-22.844-73.361h0.076l-13.246-42.334c-1.043-3.35-3.422-6.474-6.845-8.708
		c-3.346-2.307-7.738-3.721-12.501-3.721h-40.994c-5.806,0-10.939,2.086-14.51,5.21c-3.571,3.124-5.503,7.07-5.503,11.309v118.598
		c8.406-1.115,12.944-4.316,18.154-8.036V359.699z" style="fill: rgb(225, 86, 75);"></path>
	<path class="st0" d="M169.427,443.475h88.318c5.802,0,10.935-2.082,14.506-5.206c3.571-3.2,5.431-7.146,5.507-11.386v-25.892
		c0-1.264-0.226-2.678-0.672-4.09l-9.002-28.868c-5.802,3.866-13.318,7.586-25.22,7.514c-14.434,0.072-22.398-5.282-28.646-9.82
		c-3.124-2.158-5.878-4.094-9.078-5.431c-3.197-1.417-6.845-2.307-12.127-2.307c-5.21,0-8.93,0.966-12.126,2.307
		c-3.201,1.337-5.878,3.273-8.93,5.431h-0.073c-5.358,3.793-11.829,8.33-22.47,9.449v51.708c0,4.24,1.932,8.186,5.503,11.386
		C158.488,441.394,163.621,443.475,169.427,443.475z" style="fill: rgb(225, 86, 75);"></path>
	<path class="st0" d="M415.476,345.338c-1.86-85.342-39.952-136.978-71.65-165.249c-22.99-20.538-45.982-31.992-59.148-37.423
		V130.91l-3.72-4.166l-2.979-3.422V62.828c0-11.306-9.151-20.461-20.461-20.461H147.404c-11.309,0-20.461,9.155-20.461,20.461
		v60.493l-2.975,3.422l-3.72,4.166v33.78h0.073l-15.477,34.001c-5.58,12.126-8.33,25.074-8.33,38.393v218.221l-0.076,2.234
		c-0.073,9.671-0.298,27.679,12.948,41.07c8.777,8.93,21.129,13.391,36.678,13.391h132.439c29.536,0,58.926-11.458,80.579-31.545
		c18.601-17.188,50.367-51.039,54.313-84.598C415.178,380.309,415.85,363.343,415.476,345.338z M169.427,217.662h40.994
		c7.666,0,14.881,2.234,20.835,6.176c5.878,3.946,10.564,9.747,12.722,16.741l16.221,51.933l2.976,9.674l28.122,90.25
		c0.821,2.826,1.341,5.653,1.341,8.555v25.892c0,8.93-4.24,17.039-10.641,22.546c-6.326,5.58-14.954,8.854-24.254,8.926h-88.318
		c-9.3-0.073-17.932-3.346-24.254-8.926c-6.402-5.507-10.641-13.616-10.641-22.546V249.061c0-8.93,4.239-16.966,10.641-22.546
		C151.495,221.011,160.127,217.662,169.427,217.662z M141.824,128.974V62.828c0-3.124,2.529-5.58,5.58-5.58h110.115
		c3.052,0,5.58,2.456,5.58,5.58v66.146l6.699,7.59v1.042v11.458l-0.97-0.298H139.815l-0.447,1.043h-4.239v-12.203v-1.042
		L141.824,128.974z M339.064,375.618h-0.371c-10.714,0-19.643-7.513-22.099-18.6c-10.488-45.83-15.327-65.622-25.07-91.663
		c-5.508-15.03-5.657-20.461,4.09-27.008c3.869-2.678,8.483-4.094,13.391-4.094c7.07,0,13.765,3.128,17.932,8.262
		c0.298,0.37,28.944,36.606,34.005,111.677c0.37,5.282-1.566,10.343-5.358,14.362c-3.87,4.167-9.377,6.622-15.401,6.994
		L339.064,375.618z" style="fill: rgb(225, 86, 75);"></path>
	<path class="st0" d="M167.868,0h-19.2v33.514h36.536C181.38,14.045,167.868,0,167.868,0z" style="fill: rgb(225, 86, 75);"></path>
	<path class="st0" d="M160.054,116.549l32.958-41.739c2.307-2.902,0.226-7.218-3.494-7.218h-32.962
		c-2.456,0-4.466,2.009-4.466,4.465v41.739C152.09,117.962,157.372,119.822,160.054,116.549z" style="fill: rgb(225, 86, 75);"></path>
</g>
</svg>
